<?xml version="1.0" encoding="UTF-8"?>
<svg version="1.1" xmlns="http://www.w3.org/2000/svg" width="225" height="225">
<path d="M0 0 C47.85 0 95.7 0 145 0 C145.87747818 4.38739092 146.12336555 7.95736201 146.12025452 12.39680481 C146.12153615 13.4996468 146.12153615 13.4996468 146.12284368 14.62476844 C146.12448791 17.08295978 146.11899444 19.54108255 146.11352539 21.99926758 C146.11324326 23.76352944 146.11340175 25.52779143 146.1139679 27.29205322 C146.11425488 32.07880485 146.1083741 36.86553143 146.10139394 41.65227723 C146.09514397 46.65577203 146.0945553 51.6592674 146.09336853 56.6627655 C146.09026007 66.13637578 146.0820532 75.60997452 146.07201904 85.08357972 C146.06084286 95.86946229 146.05534365 106.65534541 146.05032361 117.44123232 C146.0398702 139.62749465 146.02228013 161.8137466 146 184 C142.77473956 182.75266695 140.18622918 181.59339291 137.51171875 179.390625 C136.89135742 178.88587646 136.27099609 178.38112793 135.63183594 177.86108398 C134.99020508 177.32942627 134.34857422 176.79776855 133.6875 176.25 C132.35363205 175.161819 131.01900362 174.07456946 129.68359375 172.98828125 C129.0479248 172.46959473 128.41225586 171.9509082 127.75732422 171.41650391 C125.07261045 169.25247094 122.30954845 167.20352489 119.515625 165.18359375 C115.12421667 161.75422075 115.12421667 161.75422075 114.60851002 158.62294483 C114.60088485 157.67743606 114.59325968 156.73192728 114.58540344 155.75776672 C114.56971817 154.67136398 114.5540329 153.58496124 114.53787231 152.46563721 C114.53608978 151.27339539 114.53430725 150.08115356 114.5324707 148.8527832 C114.51918228 147.59723129 114.50589386 146.34167938 114.49220276 145.04808044 C114.45712718 141.601538 114.44188879 138.15518714 114.43236566 134.7084887 C114.42578916 132.55337359 114.41544369 130.3983092 114.40386009 128.24321556 C114.36410749 120.71917274 114.34210029 113.19528307 114.33422852 105.67114258 C114.32636706 98.66742537 114.27718472 91.66480628 114.20916301 84.66143924 C114.15275434 78.64258592 114.1273126 72.62409657 114.12528104 66.60498112 C114.12344371 63.01271474 114.1089142 59.42160491 114.06246376 55.82961464 C114.01167867 51.81702026 114.02518671 47.8070604 114.04418945 43.79418945 C114.02014038 42.61206879 113.99609131 41.42994812 113.97131348 40.21200562 C114.05498633 34.20643831 114.53365448 30.75911349 118.84098816 26.38786316 C120.20051812 25.22644157 121.58603559 24.09449827 123 23 C124.16733049 22.00077498 125.33408048 21.00087102 126.5 20 C127.325 19.34 128.15 18.68 129 18 C125.53611348 19.54666561 122.81376173 21.61390092 119.875 24 C119.00617188 24.70125 118.13734375 25.4025 117.2421875 26.125 C114.98283467 27.95794434 114.98283467 27.95794434 113 30 C110.16690063 30.27174377 110.16690063 30.27174377 106.50244141 30.30297852 C105.83557816 30.31141785 105.1687149 30.31985718 104.48164368 30.32855225 C102.27160957 30.35439401 100.06170928 30.36648733 97.8515625 30.37890625 C96.31699563 30.3950779 94.78243907 30.41225754 93.24789429 30.43040466 C89.2019936 30.47615923 85.1560791 30.51092208 81.11004639 30.54260254 C74.64064798 30.59440222 68.17140237 30.65972317 61.7021904 30.73081779 C59.44214962 30.75362284 57.18212798 30.76991548 54.92202759 30.78553772 C53.53346553 30.7989497 52.14490541 30.81256496 50.75634766 30.82641602 C48.94005356 30.84068382 48.94005356 30.84068382 47.08706665 30.85523987 C44.11481555 30.89000996 44.11481555 30.89000996 41.76522827 31.573349 C40 32 40 32 37 31 C38.19542997 36.70675499 40.19014301 39.88810387 44.5 43.875 C44.99886719 44.3596875 45.49773437 44.844375 46.01171875 45.34375 C48.77034145 47.9927327 48.77034145 47.9927327 52 50 C52 50.66 52 51.32 52 52 C52.54914063 52.23074219 53.09828125 52.46148437 53.6640625 52.69921875 C56.65376418 54.36405263 58.87547118 56.47750599 61.375 58.8125 C65.49361559 62.66780691 65.49361559 62.66780691 70.14160156 65.82568359 C72.42257801 67.73822371 72.95442111 68.76332693 73.525177 71.72703552 C73.6961758 75.29731712 73.67343293 78.82114667 73.5859375 82.39453125 C73.57744781 83.69702316 73.56895813 84.99951508 73.56021118 86.34147644 C73.53737672 89.79285614 73.47850591 93.24270414 73.4119873 96.69348145 C73.35044491 100.21927165 73.32317104 103.74531108 73.29296875 107.27148438 C73.22875299 114.18161609 73.12644233 121.09073438 73 128 C72.01 128.33 71.02 128.66 70 129 C70 129.66 70 130.32 70 131 C67.9268979 132.60097958 65.84997815 134.091011 63.6875 135.5625 C56.28450595 140.71579443 49.34150687 146.31973802 42.4609375 152.15234375 C41.27371094 153.12880859 41.27371094 153.12880859 40.0625 154.125 C39.37285156 154.70507812 38.68320313 155.28515625 37.97265625 155.8828125 C36 157 36 157 33.74609375 156.6796875 C33.16988281 156.45539063 32.59367187 156.23109375 32 156 C31.67 154.68 31.34 153.36 31 152 C31.00902344 152.57862793 31.01804688 153.15725586 31.02734375 153.75341797 C30.79118335 159.96674674 30.79118335 159.96674674 28.65625 162.75488281 C26.84098615 164.34220728 24.97649631 165.74377676 23 167.125 C22.31953613 167.63289062 21.63907227 168.14078125 20.93798828 168.6640625 C19.58653964 169.67098646 18.22745929 170.66776172 16.86035156 171.65332031 C14.48278432 173.37440442 12.1781195 175.18092596 9.875 177 C8.84632812 177.78890625 8.84632812 177.78890625 7.796875 178.59375 C6.19830224 179.84480694 4.65678942 181.1680092 3.125 182.5 C2.42375 182.995 1.7225 183.49 1 184 C0.01 183.67 -0.98 183.34 -2 183 C-2.0467145 160.02570009 -2.08198616 137.051408 -2.10362434 114.07707024 C-2.11393823 103.40976245 -2.12800075 92.74248416 -2.15087891 82.07519531 C-2.1708093 72.77791802 -2.18371562 63.4806621 -2.18817699 54.18336403 C-2.19078495 49.26023534 -2.19691722 44.33716779 -2.21146011 39.41405869 C-2.22503844 34.77991689 -2.22922211 30.14586139 -2.22621536 25.51170158 C-2.22676541 23.81135654 -2.23074136 22.1110086 -2.23841095 20.41068077 C-2.24837615 18.08739197 -2.24596319 15.76442808 -2.24050903 13.44113159 C-2.24235262 12.14140348 -2.24419621 10.84167538 -2.24609566 9.50256157 C-2 6 -2 6 0 0 Z M30 98 C30 98.99 30 99.98 30 101 C30.66 101 31.32 101 32 101 C32 100.01 32 99.02 32 98 C31.34 98 30.68 98 30 98 Z " fill="#63BC49" transform="translate(39,22)"/>
<path d="M0 0 C4.02163999 2.41298399 6.77468232 4.47470128 10.125 7.625 C14.83186012 11.98107786 19.67964227 16.07919025 24.6875 20.08984375 C25.450625 20.72019531 26.21375 21.35054687 27 22 C27.53275638 22.42710864 28.06551275 22.85421728 28.61441326 23.29426861 C30.51533697 25.63440737 30.41603274 27.20606529 30.48188782 30.20185852 C30.51202469 31.2795903 30.54216156 32.35732208 30.57321167 33.4677124 C30.59070465 34.65052795 30.60819763 35.83334351 30.6262207 37.05200195 C30.65557205 38.29791611 30.6849234 39.54383026 30.71516418 40.82749939 C30.80513489 44.96434105 30.87015312 49.10087073 30.92578125 53.23828125 C30.9406192 54.29655927 30.9406192 54.29655927 30.9557569 55.37621665 C31.04816544 62.04088152 31.12822892 68.70558877 31.17901325 75.37070942 C31.24455852 83.87163509 31.37000076 92.36683179 31.57932597 100.86546737 C31.72175066 106.85377141 31.79390432 112.84054481 31.81560391 118.83048791 C31.83038912 122.40176409 31.87466908 125.96658983 31.99483681 129.53600502 C32.68782119 151.11622886 32.68782119 151.11622886 28.23940659 157.54397202 C24.07758162 161.84303171 19.37011829 164.91295476 14.14380455 167.77106285 C11.11981147 169.50456856 8.63454836 171.59861627 6 173.875 C2.23430962 177 2.23430962 177 0 177 C0 118.59 0 60.18 0 0 Z " fill="#61BB47" transform="translate(38,29)"/>
<path d="M0 0 C8 6 8 6 10.125 8.1875 C12.48583689 10.46964232 15.02815695 11.64916225 18 13 C18 13.66 18 14.32 18 15 C18.54914063 15.23074219 19.09828125 15.46148437 19.6640625 15.69921875 C22.65376418 17.36405263 24.87547118 19.47750599 27.375 21.8125 C31.49361559 25.66780691 31.49361559 25.66780691 36.14160156 28.82568359 C38.42257801 30.73822371 38.95442111 31.76332693 39.525177 34.72703552 C39.6961758 38.29731712 39.67343293 41.82114667 39.5859375 45.39453125 C39.57320297 47.34826912 39.57320297 47.34826912 39.56021118 49.34147644 C39.53737672 52.79285614 39.47850591 56.24270414 39.4119873 59.69348145 C39.35044491 63.21927165 39.32317104 66.74531108 39.29296875 70.27148438 C39.22875299 77.18161609 39.12644233 84.09073438 39 91 C38.01 91.33 37.02 91.66 36 92 C36 92.66 36 93.32 36 94 C33.9269001 95.60097788 31.8501034 97.0911932 29.6875 98.5625 C24.97026823 101.841288 20.41761777 105.20076067 16 108.875 C10.78324741 113.2120949 6.36093069 116.45562773 0 119 C0 79.73 0 40.46 0 0 Z " fill="#0A1344" transform="translate(73,59)"/>
<path d="M0 0 C46.86 0 93.72 0 142 0 C137.9761427 4.69450018 135.16689777 7.90595229 130.5 11.5 C126.71297794 14.51321918 123.43993457 17.44447146 120.51171875 21.296875 C116.94143857 25.31920615 114.55803755 27.72628388 109.23272705 28.66183472 C107.8057275 28.70332374 106.37777812 28.71795814 104.95019531 28.71044922 C103.77328629 28.73322937 103.77328629 28.73322937 102.57260132 28.75646973 C99.99066736 28.79870447 97.41038235 28.80376439 94.828125 28.8046875 C93.02218968 28.81822762 91.21626083 28.83265616 89.41033936 28.84793091 C85.62755829 28.87332252 81.84535323 28.87863384 78.0625 28.87158203 C73.23534849 28.86549406 68.41134185 28.92329666 63.58485794 28.99824333 C59.8544365 29.0465512 56.12476275 29.05328062 52.39406586 29.0485878 C50.61594271 29.05261837 48.83778801 29.07096176 47.05997467 29.10439682 C31.47171084 29.3674857 31.47171084 29.3674857 25.02050781 23.59228516 C23.65176881 22.08701486 22.30680237 20.55934367 21 19 C19.18179139 17.48170209 17.35199007 15.97690348 15.5 14.5 C10.17627038 10.18633605 4.91647465 5.77783219 0 1 C0 0.67 0 0.34 0 0 Z " fill="#61BB47" transform="translate(40,23)"/>
<path d="M0 0 C47.85 0 95.7 0 145 0 C145.87747818 4.38739092 146.12336555 7.95736201 146.12025452 12.39680481 C146.12153615 13.4996468 146.12153615 13.4996468 146.12284368 14.62476844 C146.12448791 17.08295978 146.11899444 19.54108255 146.11352539 21.99926758 C146.11324326 23.76352944 146.11340175 25.52779143 146.1139679 27.29205322 C146.11425488 32.07880485 146.1083741 36.86553143 146.10139394 41.65227723 C146.09514397 46.65577203 146.0945553 51.6592674 146.09336853 56.6627655 C146.09026007 66.13637578 146.0820532 75.60997452 146.07201904 85.08357972 C146.06084286 95.86946229 146.05534365 106.65534541 146.05032361 117.44123232 C146.0398702 139.62749465 146.02228013 161.8137466 146 184 C145.34 183.67 144.68 183.34 144 183 C144 125.25 144 67.5 144 8 C140.7 10.97 137.4 13.94 134 17 C132.07758846 18.60161936 130.14365277 20.1897702 128.1875 21.75 C124.55811106 24.64493357 121.23991793 27.67283114 118 31 C117.34 30.67 116.68 30.34 116 30 C120.15207792 25.7373638 124.36321221 21.73204871 129 18 C127.02 18.66 125.04 19.32 123 20 C125.82372203 16.22393775 128.80438631 13.35642564 132.5 10.4375 C135.90861979 7.73588788 138.90706278 5.09293722 142 2 C95.8 2 49.6 2 2 2 C8.359132 7.78102909 14.52404108 13.35284783 21.19921875 18.69921875 C24 21 24 21 25.37312317 22.72421265 C29.10394308 26.94814656 32.37717611 28.41243555 38.02959728 28.80828285 C42.18872427 28.94881353 46.33919222 28.93835295 50.5 28.90234375 C52.30462438 28.91173653 54.10923517 28.92419907 55.91381836 28.93959045 C60.64213678 28.97173202 65.36948243 28.96240485 70.09783936 28.94421387 C74.93121873 28.93303231 79.7643522 28.96138221 84.59765625 28.98632812 C94.06527761 29.0294057 103.53234281 29.02864205 113 29 C113 29.33 113 29.66 113 30 C112.14444519 30.01030746 111.28889038 30.02061493 110.40740967 30.03123474 C102.3441413 30.12921725 94.28094605 30.23173285 86.21780014 30.33933926 C82.07247287 30.39450068 77.92713847 30.44790977 73.78173828 30.49731445 C69.78111963 30.54505811 65.78058524 30.5974044 61.78006744 30.65294075 C60.25387928 30.67331902 58.72766805 30.6920395 57.2014389 30.70907402 C55.06356984 30.7332185 52.92585876 30.76325894 50.78808594 30.79467773 C49.5711908 30.81022202 48.35429565 30.8257663 47.1005249 30.84178162 C44.11668791 30.89072161 44.11668791 30.89072161 41.76324463 31.57533264 C40 32 40 32 37 31 C38.10282303 38.40466894 42.61011846 42.10918156 48 47 C45 47 45 47 35 38 C35 76.61 35 115.22 35 155 C35.99 155 36.98 155 38 155 C37.34 155.66 36.68 156.32 36 157 C33.875 156.625 33.875 156.625 32 156 C31.67 154.68 31.34 153.36 31 152 C30.67 154.97 30.34 157.94 30 161 C29.67 161 29.34 161 29 161 C29.00498599 160.34438646 29.00997198 159.68877293 29.01510906 159.01329231 C29.13287239 143.0284798 29.18947105 127.0447806 29.17878246 111.05958748 C29.17507389 103.32900033 29.19173402 95.59947798 29.25708008 87.86914062 C29.31401338 81.12781044 29.33198066 74.38766799 29.3040064 67.64613616 C29.29054312 64.07905151 29.29601339 60.51435269 29.34822655 56.94757462 C30.5116093 40.66347036 30.5116093 40.66347036 24.1341753 26.58472252 C21.90273848 24.75847629 19.53893156 23.35616777 17 22 C15.88603556 21.10607688 14.79021821 20.18804194 13.73046875 19.23046875 C12.89128906 18.55628906 12.05210938 17.88210937 11.1875 17.1875 C7.42816235 14.15614301 3.7115359 11.09294658 0 8 C-0.33 65.75 -0.66 123.5 -1 183 C-1.33 183 -1.66 183 -2 183 C-2.0467145 160.02570009 -2.08198616 137.051408 -2.10362434 114.07707024 C-2.11393823 103.40976245 -2.12800075 92.74248416 -2.15087891 82.07519531 C-2.1708093 72.77791802 -2.18371562 63.4806621 -2.18817699 54.18336403 C-2.19078495 49.26023534 -2.19691722 44.33716779 -2.21146011 39.41405869 C-2.22503844 34.77991689 -2.22922211 30.14586139 -2.22621536 25.51170158 C-2.22676541 23.81135654 -2.23074136 22.1110086 -2.23841095 20.41068077 C-2.24837615 18.08739197 -2.24596319 15.76442808 -2.24050903 13.44113159 C-2.24235262 12.14140348 -2.24419621 10.84167538 -2.24609566 9.50256157 C-2 6 -2 6 0 0 Z M30 98 C30 98.99 30 99.98 30 101 C30.66 101 31.32 101 32 101 C32 100.01 32 99.02 32 98 C31.34 98 30.68 98 30 98 Z " fill="#F6F7F7" transform="translate(39,22)"/>
<path d="M0 0 C37.29 0 74.58 0 113 0 C113.87747818 4.38739092 114.12336555 7.95736201 114.12025452 12.39680481 C114.12110894 13.13203281 114.12196337 13.8672608 114.12284368 14.62476844 C114.12448791 17.08295978 114.11899444 19.54108255 114.11352539 21.99926758 C114.11324326 23.76352944 114.11340175 25.52779143 114.1139679 27.29205322 C114.11425488 32.07880485 114.1083741 36.86553143 114.10139394 41.65227723 C114.09514397 46.65577203 114.0945553 51.6592674 114.09336853 56.6627655 C114.09026007 66.13637578 114.0820532 75.60997452 114.07201904 85.08357972 C114.06084286 95.86946229 114.05534365 106.65534541 114.05032361 117.44123232 C114.0398702 139.62749465 114.02228013 161.8137466 114 184 C113.34 183.67 112.68 183.34 112 183 C112 125.25 112 67.5 112 8 C108.7 10.97 105.4 13.94 102 17 C100.07758846 18.60161936 98.14365277 20.1897702 96.1875 21.75 C92.55811106 24.64493357 89.23991793 27.67283114 86 31 C85.34 30.67 84.68 30.34 84 30 C88.15207792 25.7373638 92.36321221 21.73204871 97 18 C95.02 18.66 93.04 19.32 91 20 C93.82372203 16.22393775 96.80438631 13.35642564 100.5 10.4375 C103.90861979 7.73588788 106.90706278 5.09293722 110 2 C73.7 1.67 37.4 1.34 0 1 C0 0.67 0 0.34 0 0 Z " fill="#D9F4D7" transform="translate(71,22)"/>
<path d="M0 0 C0.33 0.99 0.66 1.98 1 3 C1.66 3 2.32 3 3 3 C3.33 2.34 3.66 1.68 4 1 C4 19.81 4 38.62 4 58 C3.34 56.68 2.68 55.36 2 54 C1.67 56.97 1.34 59.94 1 63 C0.67 63 0.34 63 0 63 C0 42.21 0 21.42 0 0 Z " fill="#FFFFFF" transform="translate(68,120)"/>
<path d="M0 0 C0.99 0.99 1.98 1.98 3 3 C2.67 3.33 2.34 3.66 2 4 C1.90431424 5.48016394 1.87811732 6.96488273 1.87974548 8.44813538 C1.87837082 9.4087236 1.87699615 10.36931183 1.87557983 11.35900879 C1.88097275 12.95259216 1.88097275 12.95259216 1.88647461 14.57836914 C1.88632858 15.69042221 1.88618256 16.80247528 1.8860321 17.94822693 C1.88673179 21.64388951 1.8945268 25.33950241 1.90234375 29.03515625 C1.90420773 31.58963493 1.90563173 34.14411397 1.90663147 36.69859314 C1.91006656 42.7476171 1.91795736 48.79661955 1.92798096 54.84563488 C1.93914317 61.73065154 1.94465282 68.61566904 1.94967639 75.50069249 C1.96014 89.6671383 1.97773877 103.83356817 2 118 C1.01 118.495 1.01 118.495 0 119 C0 79.73 0 40.46 0 0 Z " fill="#000029" transform="translate(73,59)"/>
</svg>
